# File produced by Open Asset Import Library (http://www.assimp.sf.net)
# (assimp v3.1.187496374)

mtllib Drawing1.obj.mtl

# 156 vertex positions
v  10 2 1e-06
v  11.625 2 0.350482
v  12 2 1e-06
v  10 2 2
v  11.25 2 1
v  11.2756 2 0.805887
v  11.3505 2 0.625001
v  11.4697 2 0.469671
v  11.8059 2 0.275557
v  12 2 0.250001
v  12.1941 2 0.275557
v  12.2588 2 0.0340752
v  12.375 2 0.350482
v  12.5 2 0.133976
v  12.5303 2 0.469671
v  12.7071 2 0.292894
v  12.6495 2 0.625001
v  12.866 2 0.500001
v  12.7244 2 0.805887
v  12.9659 2 0.741182
v  12.75 2 1
v  13 2 1
v  12.7244 2 1.19412
v  12.9659 2 1.25882
v  12.6495 2 1.375
v  12.866 2 1.5
v  12.5303 2 1.53033
v  12.7071 2 1.70711
v  12.375 2 1.64952
v  12.5 2 1.86603
v  12.1941 2 1.72445
v  12.2588 2 1.96593
v  12 2 2
v  12 2 1.75
v  11.625 2 1.64952
v  11.8059 2 1.72445
v  11.4697 2 1.53033
v  11.3505 2 1.375
v  11.2756 2 1.19412
v  12 1e-06 1e-06
v  12.2588 1e-06 0.0340752
v  12.5 1e-06 0.133976
v  12.7071 1e-06 0.292894
v  12.866 1e-06 0.500001
v  12.9659 1e-06 0.741182
v  13 1e-06 1
v  12.9659 1e-06 1.25882
v  12.866 1e-06 1.5
v  12.7071 1e-06 1.70711
v  12.5 1e-06 1.86603
v  12.2588 1e-06 1.96593
v  12 1e-06 2
v  10 1e-06 2
v  10 1e-06 1e-06
v  11.0341 2.5 1.25882
v  11 2.5 1
v  11.0341 2.5 0.741182
v  11.134 2.5 0.500001
v  11.2929 2.5 0.292894
v  11.5 2.5 0.133976
v  11.7412 2.5 0.0340752
v  12 2.5 1e-06
v  12.2588 2.5 0.0340752
v  12.5 2.5 0.133976
v  12.7071 2.5 0.292894
v  12.866 2.5 0.500001
v  12.9659 2.5 0.741182
v  13 2.5 1
v  12.9659 2.5 1.25882
v  12.866 2.5 1.5
v  12.7071 2.5 1.70711
v  12.5 2.5 1.86603
v  12.2588 2.5 1.96593
v  12 2.5 2
v  11.7412 2.5 1.96593
v  11.5 2.5 1.86603
v  11.2929 2.5 1.70711
v  11.134 2.5 1.5
v  3 2 2
v  1.375 2 1.64952
v  1 2 2
v  3 2 1e-06
v  1.75 2 1
v  1.72445 2 1.19412
v  1.64952 2 1.375
v  1.53033 2 1.53033
v  1.19412 2 1.72445
v  1 2 1.75
v  0.805887 2 1.72445
v  0.741182 2 1.96593
v  0.625001 2 1.64952
v  0.500001 2 1.86603
v  0.469671 2 1.53033
v  0.292894 2 1.70711
v  0.350482 2 1.375
v  0.133976 2 1.5
v  0.275557 2 1.19412
v  0.0340752 2 1.25882
v  0.250001 2 1
v  1e-06 2 1
v  0.275557 2 0.805887
v  0.0340752 2 0.741182
v  0.350482 2 0.625001
v  0.133976 2 0.500001
v  0.469671 2 0.469671
v  0.292894 2 0.292894
v  0.625001 2 0.350482
v  0.500001 2 0.133976
v  0.805887 2 0.275557
v  0.741182 2 0.0340752
v  1 2 1e-06
v  1 2 0.250001
v  1.375 2 0.350482
v  1.19412 2 0.275557
v  1.53033 2 0.469671
v  1.64952 2 0.625001
v  1.72445 2 0.805887
v  1 1e-06 2
v  0.741182 1e-06 1.96593
v  0.500001 1e-06 1.86603
v  0.292894 1e-06 1.70711
v  0.133976 1e-06 1.5
v  0.0340752 1e-06 1.25882
v  1e-06 1e-06 1
v  0.0340752 1e-06 0.741182
v  0.133976 1e-06 0.500001
v  0.292894 1e-06 0.292894
v  0.500001 1e-06 0.133976
v  0.741182 1e-06 0.0340752
v  1 1e-06 1e-06
v  3 1e-06 1e-06
v  3 1e-06 2
v  1.96593 2.5 0.741182
v  2 2.5 1
v  1.96593 2.5 1.25882
v  1.86603 2.5 1.5
v  1.70711 2.5 1.70711
v  1.5 2.5 1.86603
v  1.25882 2.5 1.96593
v  1 2.5 2
v  0.741182 2.5 1.96593
v  0.500001 2.5 1.86603
v  0.292894 2.5 1.70711
v  0.133976 2.5 1.5
v  0.0340752 2.5 1.25882
v  1e-06 2.5 1
v  0.0340752 2.5 0.741182
v  0.133976 2.5 0.500001
v  0.292894 2.5 0.292894
v  0.500001 2.5 0.133976
v  0.741182 2.5 0.0340752
v  1 2.5 1e-06
v  1.25882 2.5 0.0340752
v  1.5 2.5 0.133976
v  1.70711 2.5 0.292894
v  1.86603 2.5 0.500001

# 0 UV coordinates

# 102 vertex normals
vn 0 1 0
vn 0.130526 -1.10072e-16 -0.991445
vn 0.130526 5.64835e-17 -0.991445
vn 0.382683 5.12856e-17 -0.92388
vn 0.382683 2.5916e-16 -0.92388
vn 0.608761 2.202e-16 -0.793353
vn 0.608761 7.97414e-17 -0.793353
vn 0.793353 6.75861e-17 -0.608761
vn 0.793353 1.72773e-16 -0.608761
vn 0.92388 1.06216e-16 -0.382683
vn 0.92388 1.66128e-16 -0.382683
vn 0.991445 5.79653e-17 -0.130526
vn 0.991445 2.65805e-17 -0.130526
vn 0.991445 -2.89826e-17 0.130526
vn 0.991445 -5.64835e-17 0.130526
vn 0.92388 -1.69946e-16 0.382683
vn 0.92388 -1.72773e-16 0.382683
vn 0.793353 -2.70344e-16 0.608761
vn 0.793353 -6.64512e-17 0.608761
vn 0.608761 -8.80799e-17 0.793353
vn 0.608761 -1.72773e-16 0.793353
vn 0.382683 -2.05142e-16 0.92388
vn 0.382683 -1.06322e-16 0.92388
vn 0.130526 -1.10072e-16 0.991445
vn 0.130526 0 0.991445
vn 0 -1 0
vn -8.57914e-16 -1 -0
vn -9.20656e-16 -1 -0
vn 1.02686e-15 -1 -2.56395e-16
vn -1.96739e-16 -1 -2.56395e-16
vn 2.40955e-16 -1 -3.14018e-16
vn 9.87985e-16 -1 -3.14018e-16
vn -1.39722e-15 -1 0
vn -1.11022e-16 -5.55112e-17 -1
vn -5.55112e-17 -1.11022e-16 -1
vn 4.44089e-16 0 1
vn 2.22045e-16 -2.22045e-16 1
vn -1 0 0
vn -0.88829 -0.444145 0.116946
vn -0.88829 -0.444145 -0.116946
vn -0.827754 -0.444145 -0.342867
vn -0.710809 -0.444145 -0.545423
vn -0.545423 -0.444145 -0.710809
vn -0.342867 -0.444145 -0.827754
vn -0.116946 -0.444145 -0.88829
vn 0.116946 -0.444145 -0.88829
vn 0.342867 -0.444145 -0.827754
vn 0.545423 -0.444145 -0.710809
vn 0.710809 -0.444145 -0.545423
vn 0.827754 -0.444145 -0.342867
vn 0.88829 -0.444145 -0.116946
vn 0.88829 -0.444145 0.116946
vn 0.827754 -0.444145 0.342867
vn 0.710809 -0.444145 0.545423
vn 0.545423 -0.444145 0.710809
vn 0.342867 -0.444145 0.827754
vn 0.116946 -0.444145 0.88829
vn -0.116946 -0.444145 0.88829
vn -0.342867 -0.444145 0.827754
vn -0.545423 -0.444145 0.710809
vn -0.710809 -0.444145 0.545423
vn -0.827754 -0.444145 0.342867
vn 1.97412e-30 1 -4.44532e-15
vn 1.90685e-30 1 -4.44532e-15
vn -0.130526 0 0.991445
vn -0.130526 1.09644e-16 0.991445
vn -0.382683 1.02571e-16 0.92388
vn -0.382683 3.05675e-16 0.92388
vn -0.608761 2.6424e-16 0.793353
vn -0.608761 1.72773e-16 0.793353
vn -0.793353 1.35172e-16 0.608761
vn -0.793353 1.99353e-16 0.608761
vn -0.92388 1.27459e-16 0.382683
vn -0.92388 1.72773e-16 0.382683
vn -0.991445 5.79653e-17 0.130526
vn -0.991445 2.9903e-17 0.130526
vn -0.991445 -2.89826e-17 -0.130526
vn -0.991445 -5.64835e-17 -0.130526
vn -0.92388 -1.69946e-16 -0.382683
vn -0.92388 -1.26257e-16 -0.382683
vn -0.793353 -2.02758e-16 -0.608761
vn -0.793353 -1.32902e-16 -0.608761
vn -0.608761 -1.7616e-16 -0.793353
vn -0.608761 -3.05675e-16 -0.793353
vn -0.382683 -3.58999e-16 -0.92388
vn -0.382683 -1.06322e-16 -0.92388
vn -0.130526 -1.10072e-16 -0.991445
vn -0.130526 1.09644e-16 -0.991445
vn 2.46519e-32 -1 2.22045e-16
vn 4.93038e-32 -1 2.22045e-16
vn 8.87147e-16 -1 2.22045e-16
vn 8.27651e-16 -1 2.29877e-16
vn -8.25437e-16 -1 2.29877e-16
vn 9.20656e-16 -1 0
vn 2.22045e-16 0 1
vn -3.33067e-16 1.11022e-16 -1
vn -1.66533e-16 -5.55112e-17 -1
vn 1 0 0
vn -7.40733e-31 1 1.84131e-15
vn -4.72103e-31 1 1.84131e-15
vn 2.46765e-30 1 -4.44532e-15
vn 2.86028e-30 1 -4.44532e-15

# Mesh '<STL_BINARY>' with 304 faces
g <STL_BINARY>
usemtl DefaultMaterial
f  1//1 2//1 3//1
f  4//1 5//1 1//1
f  1//1 5//1 6//1
f  1//1 6//1 7//1
f  7//1 8//1 1//1
f  1//1 8//1 2//1
f  3//1 2//1 9//1
f  3//1 9//1 10//1
f  11//1 12//1 3//1
f  11//1 3//1 10//1
f  13//1 12//1 11//1
f  13//1 14//1 12//1
f  15//1 14//1 13//1
f  15//1 16//1 14//1
f  17//1 16//1 15//1
f  17//1 18//1 16//1
f  19//1 18//1 17//1
f  19//1 20//1 18//1
f  21//1 20//1 19//1
f  21//1 22//1 20//1
f  23//1 24//1 21//1
f  21//1 24//1 22//1
f  25//1 26//1 23//1
f  23//1 26//1 24//1
f  27//1 28//1 25//1
f  25//1 28//1 26//1
f  29//1 30//1 27//1
f  27//1 30//1 28//1
f  31//1 32//1 29//1
f  29//1 32//1 30//1
f  32//1 31//1 33//1
f  33//1 31//1 34//1
f  33//1 35//1 4//1
f  33//1 34//1 36//1
f  36//1 35//1 33//1
f  4//1 35//1 37//1
f  4//1 37//1 38//1
f  38//1 39//1 4//1
f  4//1 39//1 5//1
f  40//2 3//2 41//2
f  41//2 3//2 12//3
f  41//4 12//4 42//4
f  42//4 12//4 14//5
f  42//6 14//6 43//6
f  43//6 14//6 16//7
f  43//8 16//8 44//8
f  44//8 16//8 18//9
f  44//10 18//10 45//10
f  45//10 18//10 20//11
f  45//12 20//12 46//12
f  46//12 20//12 22//13
f  46//14 22//14 47//14
f  47//14 22//14 24//15
f  47//16 24//16 48//16
f  48//16 24//16 26//17
f  48//18 26//18 49//18
f  49//18 26//18 28//19
f  49//20 28//20 50//20
f  50//20 28//20 30//21
f  50//22 30//22 51//22
f  51//22 30//22 32//23
f  51//24 32//24 52//24
f  52//24 32//24 33//25
f  53//26 54//26 52//26
f  52//26 54//26 40//26
f  52//26 40//26 51//27
f  51//27 40//26 41//27
f  51//27 41//27 50//28
f  50//28 41//27 42//29
f  50//28 42//29 49//30
f  49//30 42//29 43//31
f  49//30 43//31 48//32
f  48//32 43//31 44//33
f  48//32 44//33 47//26
f  47//26 44//33 45//26
f  47//26 45//26 46//26
f  1//34 3//34 54//34
f  54//34 3//34 40//35
f  33//36 4//36 52//36
f  52//36 4//36 53//37
f  54//38 53//38 1//38
f  1//38 53//38 4//38
f  39//39 55//39 5//39
f  5//39 55//39 56//39
f  5//40 56//40 6//40
f  6//40 56//40 57//40
f  6//41 57//41 7//41
f  7//41 57//41 58//41
f  7//42 58//42 8//42
f  8//42 58//42 59//42
f  8//43 59//43 2//43
f  2//43 59//43 60//43
f  2//44 60//44 9//44
f  9//44 60//44 61//44
f  9//45 61//45 10//45
f  10//45 61//45 62//45
f  10//46 62//46 11//46
f  11//46 62//46 63//46
f  11//47 63//47 13//47
f  13//47 63//47 64//47
f  13//48 64//48 15//48
f  15//48 64//48 65//48
f  15//49 65//49 17//49
f  17//49 65//49 66//49
f  17//50 66//50 19//50
f  19//50 66//50 67//50
f  19//51 67//51 21//51
f  21//51 67//51 68//51
f  21//52 68//52 23//52
f  23//52 68//52 69//52
f  23//53 69//53 25//53
f  25//53 69//53 70//53
f  25//54 70//54 27//54
f  27//54 70//54 71//54
f  27//55 71//55 29//55
f  29//55 71//55 72//55
f  29//56 72//56 31//56
f  31//56 72//56 73//56
f  31//57 73//57 34//57
f  34//57 73//57 74//57
f  34//58 74//58 36//58
f  36//58 74//58 75//58
f  36//59 75//59 35//59
f  35//59 75//59 76//59
f  35//60 76//60 37//60
f  37//60 76//60 77//60
f  37//61 77//61 38//61
f  38//61 77//61 78//61
f  38//62 78//62 39//62
f  39//62 78//62 55//62
f  67//1 57//1 68//1
f  57//1 67//1 58//1
f  58//1 67//1 66//1
f  68//1 57//1 56//1
f  68//1 56//1 69//1
f  69//1 56//1 55//1
f  69//1 55//1 70//1
f  70//1 55//1 78//1
f  70//1 78//1 71//1
f  71//1 78//1 77//1
f  71//1 77//1 72//1
f  72//1 77//1 76//1
f  72//1 76//1 73//63
f  73//63 76//1 75//64
f  73//63 75//64 74//1
f  58//1 66//1 59//1
f  59//1 66//1 65//1
f  59//1 65//1 60//1
f  60//1 65//1 64//1
f  60//1 64//1 61//1
f  61//1 64//1 63//1
f  61//1 63//1 62//1
f  79//1 80//1 81//1
f  82//1 83//1 79//1
f  79//1 83//1 84//1
f  79//1 84//1 85//1
f  85//1 86//1 79//1
f  79//1 86//1 80//1
f  81//1 80//1 87//1
f  81//1 87//1 88//1
f  89//1 90//1 81//1
f  89//1 81//1 88//1
f  91//1 90//1 89//1
f  91//1 92//1 90//1
f  93//1 92//1 91//1
f  93//1 94//1 92//1
f  95//1 94//1 93//1
f  95//1 96//1 94//1
f  97//1 96//1 95//1
f  97//1 98//1 96//1
f  99//1 98//1 97//1
f  99//1 100//1 98//1
f  101//1 102//1 99//1
f  99//1 102//1 100//1
f  103//1 104//1 101//1
f  101//1 104//1 102//1
f  105//1 106//1 103//1
f  103//1 106//1 104//1
f  107//1 108//1 105//1
f  105//1 108//1 106//1
f  109//1 110//1 107//1
f  107//1 110//1 108//1
f  110//1 109//1 111//1
f  111//1 109//1 112//1
f  111//1 113//1 82//1
f  111//1 112//1 114//1
f  114//1 113//1 111//1
f  82//1 113//1 115//1
f  82//1 115//1 116//1
f  116//1 117//1 82//1
f  82//1 117//1 83//1
f  118//65 81//65 119//65
f  119//65 81//65 90//66
f  119//67 90//67 120//67
f  120//67 90//67 92//68
f  120//69 92//69 121//69
f  121//69 92//69 94//70
f  121//71 94//71 122//71
f  122//71 94//71 96//72
f  122//73 96//73 123//73
f  123//73 96//73 98//74
f  123//75 98//75 124//75
f  124//75 98//75 100//76
f  124//77 100//77 125//77
f  125//77 100//77 102//78
f  125//79 102//79 126//79
f  126//79 102//79 104//80
f  126//81 104//81 127//81
f  127//81 104//81 106//82
f  127//83 106//83 128//83
f  128//83 106//83 108//84
f  128//85 108//85 129//85
f  129//85 108//85 110//86
f  129//87 110//87 130//87
f  130//87 110//87 111//88
f  131//89 132//89 130//89
f  130//89 132//89 118//90
f  130//89 118//90 129//91
f  129//91 118//90 119//92
f  129//91 119//92 128//93
f  128//93 119//92 120//94
f  128//93 120//94 127//26
f  127//26 120//94 121//26
f  127//26 121//26 126//26
f  126//26 121//26 122//26
f  126//26 122//26 125//26
f  125//26 122//26 123//26
f  125//26 123//26 124//26
f  79//95 81//95 132//95
f  132//95 81//95 118//95
f  111//96 82//96 130//96
f  130//96 82//96 131//97
f  132//98 131//98 79//98
f  79//98 131//98 82//98
f  117//51 133//51 83//51
f  83//51 133//51 134//51
f  83//52 134//52 84//52
f  84//52 134//52 135//52
f  84//53 135//53 85//53
f  85//53 135//53 136//53
f  85//54 136//54 86//54
f  86//54 136//54 137//54
f  86//55 137//55 80//55
f  80//55 137//55 138//55
f  80//56 138//56 87//56
f  87//56 138//56 139//56
f  87//57 139//57 88//57
f  88//57 139//57 140//57
f  88//58 140//58 89//58
f  89//58 140//58 141//58
f  89//59 141//59 91//59
f  91//59 141//59 142//59
f  91//60 142//60 93//60
f  93//60 142//60 143//60
f  93//61 143//61 95//61
f  95//61 143//61 144//61
f  95//62 144//62 97//62
f  97//62 144//62 145//62
f  97//39 145//39 99//39
f  99//39 145//39 146//39
f  99//40 146//40 101//40
f  101//40 146//40 147//40
f  101//41 147//41 103//41
f  103//41 147//41 148//41
f  103//42 148//42 105//42
f  105//42 148//42 149//42
f  105//43 149//43 107//43
f  107//43 149//43 150//43
f  107//44 150//44 109//44
f  109//44 150//44 151//44
f  109//45 151//45 112//45
f  112//45 151//45 152//45
f  112//46 152//46 114//46
f  114//46 152//46 153//46
f  114//47 153//47 113//47
f  113//47 153//47 154//47
f  113//48 154//48 115//48
f  115//48 154//48 155//48
f  115//49 155//49 116//49
f  116//49 155//49 156//49
f  116//50 156//50 117//50
f  117//50 156//50 133//50
f  145//1 135//1 146//1
f  135//1 145//1 136//1
f  136//1 145//1 144//1
f  146//1 135//1 134//1
f  146//1 134//1 147//1
f  147//1 134//1 133//1
f  147//1 133//1 148//99
f  148//99 133//1 156//100
f  148//99 156//100 149//1
f  149//1 156//100 155//1
f  149//1 155//1 150//1
f  150//1 155//1 154//1
f  150//1 154//1 151//101
f  151//101 154//1 153//102
f  151//101 153//102 152//1
f  136//1 144//1 137//1
f  137//1 144//1 143//1
f  137//1 143//1 138//1
f  138//1 143//1 142//1
f  138//1 142//1 139//1
f  139//1 142//1 141//1
f  139//1 141//1 140//1

